<svg id="Capa_1" data-name="Capa 1" xmlns="http://www.w3.org/2000/svg" viewBox="0 0 34.61 38.73"><defs><style>.cls-1{fill:#f1f1f1;}</style></defs><title>login ícono</title><path class="cls-1" d="M8.41,13.34c0,.22.08.3.3.3h1.58c.44,0,.44,0,.44-.44V4.53a1.47,1.47,0,0,1,.87-1.38,2,2,0,0,1,1-.18h20.9A1.56,1.56,0,0,1,34.9,4.52c0,1.6,0,3.2,0,4.8v26.2a1.43,1.43,0,0,1-1,1.45,2.38,2.38,0,0,1-.79.1H12.3a1.58,1.58,0,0,1-1.58-1.62c0-2.73,0-5.46,0-8.19,0-.27-.08-.36-.35-.35-.52,0-1.05,0-1.58,0s-.4,0-.4.4v8.16a3.82,3.82,0,0,0,3,3.79l.45.1H33.76l.47-.1a3.76,3.76,0,0,0,3-3.56V4.34a3.49,3.49,0,0,0-.25-1.28A3.94,3.94,0,0,0,33.29.64H12.35a5,5,0,0,0-.69.06A3.82,3.82,0,0,0,8.41,4.28C8.39,7.31,8.41,10.32,8.41,13.34Z" transform="translate(-2.58 -0.64)"/><path class="cls-1" d="M8.19,25.55H2.94c-.36,0-.36,0-.36-.36v-10c0-.35,0-.36.36-.36H13.37c.43,0,.43,0,.43-.42V8.75c0-.1,0-.22,0-.27s.17.07.24.13l4.18,3.73L23.45,17c1.06.94,2.12,1.9,3.19,2.84.18.16.17.26,0,.41L22.4,24l-3.76,3.35-4.58,4.08c-.06.05-.11.17-.22.11s0-.15,0-.22V25.94c0-.39,0-.39-.4-.39Z" transform="translate(-2.58 -0.64)"/></svg>