<svg xmlns="http://www.w3.org/2000/svg" viewBox="0 0 24.65 28.76"><defs><style>.cls-1{fill:#e6007e;}</style></defs><title>doc para carga</title><g id="Capa_2" data-name="Capa 2"><g id="Capa_1-2" data-name="Capa 1"><path class="cls-1" d="M22.91,28.76H1.74l-.2,0a2.05,2.05,0,0,1-1.54-2V2a1.32,1.32,0,0,1,0-.28A2.08,2.08,0,0,1,2.11,0H15.86A3.8,3.8,0,0,1,18.6,1.14c1.65,1.62,3.28,3.27,4.92,4.91a3.8,3.8,0,0,1,.61.82,5,5,0,0,1,.52,1.5V27a2.14,2.14,0,0,1-.89,1.39A2.6,2.6,0,0,1,22.91,28.76ZM2.07,14.37v12.1c0,.22,0,.22.21.22H22.35c.22,0,.22,0,.22-.22V10.52c0-.23,0-.23-.23-.23H16a2,2,0,0,1-.34,0,1.53,1.53,0,0,1-1.27-1.54V2.31c0-.24,0-.24-.23-.24H2.3c-.24,0-.24,0-.24.24Q2.08,8.36,2.07,14.37ZM16.44,5.21V8c0,.25,0,.25.25.25h5.6c.11,0,.13,0,.09-.14A1.7,1.7,0,0,0,22,7.49L17.18,2.66a1.61,1.61,0,0,0-.56-.37c-.17-.07-.18-.06-.18.12C16.44,3.34,16.44,4.27,16.44,5.21Z"/><path class="cls-1" d="M12.31,16.45H7.18a1,1,0,0,1-1-.7,1,1,0,0,1,.35-1.16,1,1,0,0,1,.61-.21H17.48a1,1,0,0,1,0,2.07Z"/><path class="cls-1" d="M12.31,20.56H7.18a1,1,0,0,1-.64-1.85,1,1,0,0,1,.62-.22H17.48a1,1,0,0,1,0,2.07Z"/><path class="cls-1" d="M9.2,10.27h2a1,1,0,0,1,.23,2.06.82.82,0,0,1-.22,0h-4a1,1,0,0,1,0-2.08Z"/></g></g></svg>