<?xml version="1.0" encoding="utf-8"?>
<!-- Generator: Adobe Illustrator 18.1.1, SVG Export Plug-In . SVG Version: 6.00 Build 0)  -->
<svg version="1.1"
	 id="Capa_1" xmlns:sodipodi="http://sodipodi.sourceforge.net/DTD/sodipodi-0.dtd" xmlns:rdf="http://www.w3.org/1999/02/22-rdf-syntax-ns#" xmlns:svg="http://www.w3.org/2000/svg" xmlns:dc="http://purl.org/dc/elements/1.1/" xmlns:cc="http://creativecommons.org/ns#" xmlns:inkscape="http://www.inkscape.org/namespaces/inkscape"
	 xmlns="http://www.w3.org/2000/svg" xmlns:xlink="http://www.w3.org/1999/xlink" x="0px" y="0px" viewBox="1215.8 24.6 24.6 26.6"
	 enable-background="new 1215.8 24.6 24.6 26.6" xml:space="preserve">
<g>
	<g>
		<path fill="#FFFFFF" d="M1238.6,50.3c-0.3,0-0.6-0.1-0.8-0.4l-20.7-22.8c-0.4-0.4-0.4-1.1,0.1-1.5c0.4-0.4,1.1-0.4,1.5,0.1
			l20.7,22.8c0.4,0.4,0.4,1.1-0.1,1.5C1239.1,50.3,1238.9,50.3,1238.6,50.3z"/>
	</g>
	<g>
		<path fill="#FFFFFF" d="M1217.9,50.3c-0.3,0-0.5-0.1-0.7-0.3c-0.4-0.4-0.5-1.1-0.1-1.5l20.7-22.8c0.4-0.4,1.1-0.5,1.5-0.1
			c0.4,0.4,0.5,1.1,0.1,1.5L1218.7,50C1218.5,50.2,1218.2,50.3,1217.9,50.3z"/>
	</g>
</g>
</svg>
