<svg width="140" height="30" xmlns="http://www.w3.org/2000/svg">
 <g>
  <path fill="#e9327c" d="m21.49882,23.77778l-17.94,-12.375c-1.818,-1.254 -1.2,-3.865 1.067,-4.479l19.067,-5.175a2.7,2.7 0 0 1 3.616,2.492l-1.13,17.549c-0.134,2.083 -2.862,3.242 -4.68,1.988z"/>
  <path fill="#1dace3" d="m15.80882,26.83278l-10.569,-20.669a2.883,2.883 0 0 1 3.007,-4.161l19.587,3.023a2.883,2.883 0 0 1 2.127,4.162l-9.023,17.646a2.883,2.883 0 0 1 -5.129,-0.001z"/>
  <path fill="#001a49" d="m27.26082,4.93678l-9.764,-1.507l-11.988,3.255l4.785,9.361l11.205,7.732a2.888,2.888 0 0 0 0.806,0.383l4.256,-8.323l0.7,-10.901z"/>
  <path fill="#001a49" d="m76.71782,7.35278a1.835,1.835 0 1 1 1.835,1.835a1.854,1.854 0 0 1 -1.835,-1.835zm0.306,2.732l3.059,0l0,10.194l-3.059,0l0,-10.194z"/>
  <path fill="#001a49" d="m93.29282,15.18178a5.119,5.119 0 0 1 -4.872,5.383a3.829,3.829 0 0 1 -3.038,-1.244l0,5.036l-3.058,0l0,-14.272l3.058,0l0,0.958a3.829,3.829 0 0 1 3.038,-1.243a5.118,5.118 0 0 1 4.872,5.382zm-3.058,0a2.427,2.427 0 1 0 -2.426,2.488a2.327,2.327 0 0 0 2.426,-2.488z"/>
  <path fill="#001a49" d="m102.73182,17.21878c0,2.345 -2.039,3.344 -4.241,3.344a4.463,4.463 0 0 1 -4.383,-2.427l2.65,-1.508a1.675,1.675 0 0 0 1.733,1.2c0.734,0 1.1,-0.225 1.1,-0.632c0,-1.122 -5.015,-0.53 -5.015,-4.058c0,-2.222 1.875,-3.343 4,-3.343a4.46,4.46 0 0 1 3.975,2.181l-2.609,1.407a1.481,1.481 0 0 0 -1.366,-0.9c-0.53,0 -0.856,0.2 -0.856,0.571c-0.003,1.17 5.012,0.395 5.012,4.165z"/>
  <path fill="#001a49" d="m113.90882,10.08478l0,10.194l-3.058,0l0,-0.96a3.489,3.489 0 0 1 -2.916,1.244c-2.059,0 -3.812,-1.468 -3.812,-4.221l0,-6.257l3.058,0l0,5.811a1.681,1.681 0 0 0 1.774,1.855c1.121,0 1.9,-0.652 1.9,-2.1l0,-5.566l3.054,0z"/>
  <path fill="#001a49" d="m131.43682,14.01878l0,6.26l-3.058,0l0,-5.994c0,-1.019 -0.49,-1.672 -1.468,-1.672c-1.02,0 -1.59,0.714 -1.59,1.917l0,5.749l-3.059,0l0,-5.994c0,-1.019 -0.489,-1.672 -1.468,-1.672c-1.019,0 -1.59,0.714 -1.59,1.917l0,5.749l-3.058,0l0,-10.194l3.063,0l0,0.934a3.129,3.129 0 0 1 2.732,-1.223a3.034,3.034 0 0 1 2.671,1.345a3.359,3.359 0 0 1 2.957,-1.345c2.34,0.004 3.868,1.675 3.868,4.223z"/>
  <circle fill="#001a49" r="2.27" cy="7.75178" cx="134.02782"/>
  <path fill="#001a49" d="m34.96582,5.39578l3.059,0l0,14.883l-3.059,0l0,-14.883zm4.791,9.786a5.4,5.4 0 1 1 5.4,5.383a5.343,5.343 0 0 1 -5.4,-5.383zm7.748,0a2.345,2.345 0 1 0 -2.345,2.406a2.287,2.287 0 0 0 2.349,-2.406l-0.004,0zm15.249,-5.1l0,9.685c0,3.425 -2.671,4.872 -5.382,4.872a5.212,5.212 0 0 1 -4.832,-2.467l2.609,-1.509a2.331,2.331 0 0 0 2.325,1.285a2.032,2.032 0 0 0 2.3,-2.181l0,-0.938a3.622,3.622 0 0 1 -2.977,1.325a5.181,5.181 0 0 1 0,-10.357a3.622,3.622 0 0 1 2.977,1.325l0,-1.04l2.98,0zm-2.976,4.893a2.47,2.47 0 1 0 -2.469,2.369a2.308,2.308 0 0 0 2.469,-2.366l0,-0.003zm4.708,0.2a5.4,5.4 0 1 1 5.4,5.383a5.343,5.343 0 0 1 -5.4,-5.376l0,-0.007zm7.748,0a2.346,2.346 0 1 0 -2.345,2.406a2.287,2.287 0 0 0 2.345,-2.399l0,-0.007z"/>
 </g>
</svg>