<svg width="35" height="30" xmlns="http://www.w3.org/2000/svg">
 <g>
  <path d="m21.49882,23.77778l-17.94,-12.375c-1.818,-1.254 -1.2,-3.865 1.067,-4.479l19.067,-5.175a2.7,2.7 0 0 1 3.616,2.492l-1.13,17.549c-0.134,2.083 -2.862,3.242 -4.68,1.988z" fill="#e9327c" id="svg_1"/>
  <path d="m15.80882,26.83278l-10.569,-20.669a2.883,2.883 0 0 1 3.007,-4.161l19.587,3.023a2.883,2.883 0 0 1 2.127,4.162l-9.023,17.646a2.883,2.883 0 0 1 -5.129,-0.001z" fill="#1dace3" id="svg_2"/>
  <path d="m27.26082,4.93678l-9.764,-1.507l-11.988,3.255l4.785,9.361l11.205,7.732a2.888,2.888 0 0 0 0.806,0.383l4.256,-8.323l0.7,-10.901z" fill="#001a49" id="svg_3"/>
 </g>
</svg>
