<?xml version="1.0" encoding="utf-8"?>
<!-- Generator: Adobe Illustrator 24.1.1, SVG Export Plug-In . SVG Version: 6.00 Build 0)  -->
<svg version="1.1" id="Capa_1" xmlns="http://www.w3.org/2000/svg" xmlns:xlink="http://www.w3.org/1999/xlink" x="0px" y="0px"
	 viewBox="0 0 84.67 84.67" style="enable-background:new 0 0 84.67 84.67;" xml:space="preserve">
<style type="text/css">
	.st0{fill:#FFFFFF;}
</style>
<g>
	<path class="st0" d="M71.87,32.37v42.94c0,3.68-2.9,6.69-6.58,6.69c-3.68,0-6.69-3.01-6.69-6.69V57.24
		c-4.8,3.23-10.48,5.02-16.62,5.02s-11.82-1.78-16.62-5.02v18.07c0,3.68-2.9,6.69-6.58,6.69s-6.69-3.01-6.69-6.69V32.37
		c0-16.51,13.38-29.89,29.89-29.89S71.87,15.86,71.87,32.37z M58.6,32.37c0-9.15-7.47-16.62-16.62-16.62s-16.62,7.47-16.62,16.62
		c0,9.15,7.47,16.62,16.62,16.62S58.6,41.51,58.6,32.37z"/>
</g>
</svg>
